<svg width="18" height="17" viewBox="0 0 18 17" fill="none" xmlns="http://www.w3.org/2000/svg">
<path d="M10 3.40586V11.9959C10 12.2611 9.89464 12.5154 9.70711 12.703C9.51957 12.8905 9.26522 12.9959 9 12.9959C8.73478 12.9959 8.48043 12.8905 8.29289 12.703C8.10536 12.5154 8 12.2611 8 11.9959V3.40586L4.7 6.70586C4.50755 6.86842 4.26084 6.95236 4.00918 6.94089C3.75752 6.92943 3.51946 6.8234 3.34259 6.644C3.16573 6.46461 3.06309 6.22507 3.05519 5.97328C3.04729 5.72148 3.13472 5.47598 3.3 5.28586L8.3 0.285857C8.48693 0.10263 8.73825 0 9 0C9.26175 0 9.51307 0.10263 9.7 0.285857L14.7 5.28586C14.8053 5.37478 14.891 5.48449 14.9519 5.60812C15.0127 5.73174 15.0474 5.86661 15.0537 6.00426C15.0599 6.14192 15.0377 6.27938 14.9883 6.40803C14.939 6.53668 14.8635 6.65373 14.7668 6.75186C14.6701 6.84998 14.5541 6.92705 14.4261 6.97824C14.2982 7.02942 14.1611 7.05361 14.0234 7.04929C13.8856 7.04497 13.7503 7.01224 13.6258 6.95314C13.5013 6.89404 13.3904 6.80985 13.3 6.70586L10 3.39586V3.40586ZM0 11.9959C0 11.7306 0.105357 11.4763 0.292893 11.2887C0.48043 11.1012 0.734784 10.9959 1 10.9959C1.26522 10.9959 1.51957 11.1012 1.70711 11.2887C1.89464 11.4763 2 11.7306 2 11.9959V14.9959H16V11.9959C16 11.7306 16.1054 11.4763 16.2929 11.2887C16.4804 11.1012 16.7348 10.9959 17 10.9959C17.2652 10.9959 17.5196 11.1012 17.7071 11.2887C17.8946 11.4763 18 11.7306 18 11.9959V14.9959C18 15.5263 17.7893 16.035 17.4142 16.4101C17.0391 16.7851 16.5304 16.9959 16 16.9959H2C1.46957 16.9959 0.960859 16.7851 0.585786 16.4101C0.210714 16.035 0 15.5263 0 14.9959V11.9959Z" fill="#0770E8"/>
</svg>
